<svg width="138" height="187" viewBox="0 0 138 187" fill="none" xmlns="http://www.w3.org/2000/svg">
<g filter="url(#filter0_i)">
<path d="M1 181V6C1 3.23858 3.23858 1 6 1H132.5C135.261 1 137.5 3.23857 137.5 6V181C137.5 183.761 135.261 186 132.5 186H6C3.23858 186 1 183.761 1 181Z" fill="#F56638"/>
</g>
<path d="M1 181V6C1 3.23858 3.23858 1 6 1H132.5C135.261 1 137.5 3.23857 137.5 6V181C137.5 183.761 135.261 186 132.5 186H6C3.23858 186 1 183.761 1 181Z" stroke="#731919"/>
<path d="M1 181V6C1 3.23858 3.23858 1 6 1H132.5C135.261 1 137.5 3.23857 137.5 6V181C137.5 183.761 135.261 186 132.5 186H6C3.23858 186 1 183.761 1 181Z" stroke="url(#paint0_linear)"/>
<defs>
<filter id="filter0_i" x="0.5" y="0.5" width="137.5" height="190" filterUnits="userSpaceOnUse" color-interpolation-filters="sRGB">
<feFlood flood-opacity="0" result="BackgroundImageFix"/>
<feBlend mode="normal" in="SourceGraphic" in2="BackgroundImageFix" result="shape"/>
<feColorMatrix in="SourceAlpha" type="matrix" values="0 0 0 0 0 0 0 0 0 0 0 0 0 0 0 0 0 0 127 0" result="hardAlpha"/>
<feOffset dy="4"/>
<feGaussianBlur stdDeviation="2"/>
<feComposite in2="hardAlpha" operator="arithmetic" k2="-1" k3="1"/>
<feColorMatrix type="matrix" values="0 0 0 0 0 0 0 0 0 0 0 0 0 0 0 0 0 0 0.25 0"/>
<feBlend mode="normal" in2="shape" result="effect1_innerShadow"/>
</filter>
<linearGradient id="paint0_linear" x1="69.25" y1="1" x2="69.25" y2="186" gradientUnits="userSpaceOnUse">
<stop stop-color="#A82B2B"/>
<stop offset="1" stop-color="white" stop-opacity="0"/>
</linearGradient>
</defs>
</svg>
